{"title":"Lady Gaga - Applause (Official Lyric Video) 1080p","uid":8816320,"size":161596680,"categoryP":"video","categoryS":"music_videos","magnet":"?xt=urn:btih:7b4216cbb75cbaa9ea39c1679a32e904d49db3b1&amp;dn=Lady+Gaga+-+Applause+%28Official+Lyric+Video%29+1080p&amp;tr=udp%3A%2F%2Ftracker.openbittorrent.com%3A80&amp;tr=udp%3A%2F%2Fopen.demonii.com%3A1337&amp;tr=udp%3A%2F%2Ftracker.coppersurfer.tk%3A6969&amp;tr=udp%3A%2F%2Fexodus.desync.com%3A6969","seeders":2,"leechers":0,"uploader":"deejayabc","files":1,"time":1376593848,"description":"Keep Seeding!!=))\n\nVideo \nID : 1 \nFormat : AVC \nFormat/Info : Advanced Video Codec \nFormat profile : &lt;a class=&quot;__cf_email__&quot; href=&quot;/cdn-cgi/l/email-protection&quot; data-cfemail=&quot;367e5f515e767a021806&quot;&gt;[email&amp;#160;protected]&lt;/a&gt;&lt;script cf-hash='f9e31' type=&quot;text/javascript&quot;&gt;\n/* &lt;![CDATA[ */!function(){try{var t=&quot;currentScript&quot;in document?document.currentScript:function(){for(var t=document.getElementsByTagName(&quot;script&quot;),e=t.length;e--;)if(t[e].getAttribute(&quot;cf-hash&quot;))return t[e]}();if(t&amp;&amp;t.previousSibling){var e,r,n,i,c=t.previousSibling,a=c.getAttribute(&quot;data-cfemail&quot;);if(a){for(e=&quot;&quot;,r=parseInt(a.substr(0,2),16),n=2;a.length-n;n+=2)i=parseInt(a.substr(n,2),16)^r,e+=String.fromCharCode(i);e=document.createTextNode(e),c.parentNode.replaceChild(e,c)}}}catch(u){}}();/* ]]&gt; */&lt;/script&gt; \nFormat settings, CABAC : Yes \nFormat settings, ReFrames : 1 frame \nCodec ID : avc1 \nCodec ID/Info : Advanced Video Coding \nDuration : 3mn 33s \nBit rate : 5 869 Kbps \nMaximum bit rate : 9 260 Kbps \nWidth : 1 920 pixels \nHeight : 1 080 pixels \nDisplay aspect ratio : 16:9 \nFrame rate mode : Constant \nFrame rate : 29.970 fps \nColor space : YUV \nChroma subsampling : 4:2:0 \nBit depth : 8 bits \nScan type : Progressive \nBits/(Pixel*Frame) : 0.094 \nStream size : 149 MiB (97%) \nTagged date : UTC 2013-08-14 13:51:04 \n\nAudio \nID : 2 \nFormat : AAC \nFormat/Info : Advanced Audio Codec \nFormat profile : LC \nCodec ID : 40 \nDuration : 3mn 33s \nBit rate mode : Variable \nBit rate : 192 Kbps \nMaximum bit rate : 203 Kbps \nChannel(s) : 2 channels \nChannel positions : Front: L R \nSampling rate : 44.1 KHz \nCompression mode : Lossy \nStream size : 4.88 MiB (3%) \nTitle : IsoMedia File Produced by Google, 5-11-2011 \nEncoded date : UTC 2013-08-14 13:51:02 \nTagged date : UTC 2013-08-14 13:51:04","torrent":{"xt":"urn:btih:7b4216cbb75cbaa9ea39c1679a32e904d49db3b1","amp;dn":"Lady+Gaga+-+Applause+%28Official+Lyric+Video%29+1080p","amp;tr":["udp%3A%2F%2Ftracker.openbittorrent.com%3A80","udp%3A%2F%2Fopen.demonii.com%3A1337","udp%3A%2F%2Ftracker.coppersurfer.tk%3A6969","udp%3A%2F%2Fexodus.desync.com%3A6969"],"infoHash":"7b4216cbb75cbaa9ea39c1679a32e904d49db3b1","infoHashBuffer":{"type":"Buffer","data":[123,66,22,203,183,92,186,169,234,57,193,103,154,50,233,4,212,157,179,177]},"announce":[],"urlList":[]}}